<mxfile host="app.diagrams.net" modified="2024-05-20T02:06:39.296Z" agent="Mozilla/5.0 (Windows NT 10.0; Win64; x64) AppleWebKit/537.36 (KHTML, like Gecko) Chrome/124.0.0.0 Safari/537.36" version="24.4.4" etag="srR58yiRUCIS-ys1-ZZ7" type="github">
  <diagram name="PÃ¡gina-1" id="v2ArjjtcI1sUFmu_12nL">
    <mxGraphModel>
      <root>
        <mxCell id="0" />
        <mxCell id="1" parent="0" />
      </root>
    </mxGraphModel>
  </diagram>
</mxfile>
